<svg xmlns="http://www.w3.org/2000/svg" xmlns:xlink="http://www.w3.org/1999/xlink" width="16" height="16" viewBox="0 0 16 16">
  <defs>
    <path id="notch-circle-white-main-a" d="M2,8 L2,8.08235933 C2,8.58915828 1.58915828,9 1.08235933,9 C1.08235933,9 1.08235933,9 1.08235933,9 C1.03870361,8.85954465 1.0112505,8.52621132 1,8 C1,4.13400675 4.13400675,1 8,1 C11.8659932,1 15,4.13400675 15,8 C15,11.8659932 11.8659932,15 8,15 C7.55982993,15 7.2264966,14.9736882 7,14.9210647 C7,14.9210647 7,14.9210647 7,14.9210647 C7,14.4123747 7.41237473,14 7.92106474,14 L8,14 L8,14 C11.3137085,14 14,11.3137085 14,8 C14,4.6862915 11.3137085,2 8,2 C4.6862915,2 2,4.6862915 2,8 Z"/>
  </defs>
  <use fill="#FFF" fill-rule="evenodd" xlink:href="#notch-circle-white-main-a"/>
</svg>
