<svg xmlns="http://www.w3.org/2000/svg" fill="#52c41a" xmlns:xlink="http://www.w3.org/1999/xlink" width="16" height="16" viewBox="0 0 16 16">
  <defs>
    <path id="check-circle-black-main-a" d="M10.109375,6.078125 C10.3112095,5.88873057 10.6274309,5.88873057 10.828125,6.078125 C11.0175099,6.278886 11.0175099,6.59516947 10.828125,6.796875 L7.296875,10.328125 C7.19344863,10.4199806 7.0656334,10.46875 6.9375,10.46875 C6.81000293,10.46875 6.6821877,10.4199806 6.578125,10.328125 L5.078125,8.828125 C4.88874013,8.62618132 4.88874013,8.30989785 5.078125,8.109375 C5.27881907,7.91974242 5.59504054,7.91974242 5.796875,8.109375 L6.9375,9.265625 L10.109375,6.078125 Z M8,15 C4.13400675,15 1,11.8659932 1,8 C1,4.13400675 4.13400675,1 8,1 C11.8659932,1 15,4.13400675 15,8 C15,11.8659932 11.8659932,15 8,15 Z M8,14 C11.3137085,14 14,11.3137085 14,8 C14,4.6862915 11.3137085,2 8,2 C4.6862915,2 2,4.6862915 2,8 C2,11.3137085 4.6862915,14 8,14 Z"/>
  </defs>
  <use fill-opacity=".85" fill-rule="evenodd" xlink:href="#check-circle-black-main-a"/>
</svg>
