<svg width="260" height="24" viewBox="0 0 260 24" xmlns="http://www.w3.org/2000/svg"><defs><clipPath id="a"><path d="M260 0v24H0V0h260z"/></clipPath><clipPath id="b"><path d="M33.7192644.0333302c4.1743207 0 7.2997164 1.5451874 9.3748508 4.6355622l-2.7940155 1.9984779c-1.4471157-2.2397885-3.6411728-3.3596827-6.5808353-3.3596827-2.4131956 0-4.405485.8239222-5.9768682 2.4691002-1.5593573 1.6465111-2.3397041 3.7236483-2.3397041 6.2314114 0 2.4970975.7803468 4.5689019 2.3397041 6.2140798 1.5713832 1.6798414 3.5636726 2.519762 5.9768682 2.519762 1.5593573 0 2.9222917-.3359682 4.0901395-1.0079048 1.0876751-.6159418 2.0310395-1.5065244 2.8274207-2.6704144l2.7940156 1.947816C41.2541538 22.3378903 38.0165164 24.0004 33.7192644 24.0004c-3.3779394 0-6.217386-1.1198943-8.51834-3.3596827-2.3450489-2.29445-3.5182415-5.1728448-3.5182415-8.6325181 0-3.4490076 1.1731926-6.3154035 3.5182415-8.5991878 2.300954-2.2504541 5.1404006-3.3756812 8.51834-3.3756812zM86.8616803 0c3.3766032 0 6.2280758 1.125227 8.5504091 3.3756812 2.3450489 2.2837843 3.5182415 5.1621791 3.5182415 8.632518 0 3.4596733-1.1731926 6.3380681-3.5182415 8.6325181-2.3223333 2.2397884-5.1738059 3.3596827-8.5504091 3.3596827-3.4006549 0-6.2628172-1.1198943-8.5851505-3.3596827-2.3463851-2.29445-3.5182415-5.1728448-3.5182415-8.6325181 0-3.4703389 1.1718564-6.3487337 3.5182415-8.632518C80.5988631 1.125227 83.4610254 0 86.8616803 0zm16.9084037.0666604l12.927834 13.8560247c.35944.391963.829786.9465772 1.41371 1.6625096l.757631.957243-.033405-.3359683c-.022715-.1226551-.033405-.2519762-.033405-.385297-.022716-.1573184-.033405-.3199697-.033405-.4879539-.101552-.8945821-.152328-1.6171806-.152328-2.166462V.3013049H122v23.6311015h-.454311l-12.927834-13.8893549c-.38082-.4146275-.864528-.9745746-1.447116-1.6798414l-.757631-.9399112.150992 1.1425588c.068146.8959153.101552 1.6398451.101552 2.2331224v12.8987818h-3.383284V.0666604h.487716zm-93.3169116 0l10.2687754 23.6311015h-3.7881559l-1.7330647-4.2662638H5.2352716l-1.7170301 4.2662638H0L10.0322662.0666604h.4209062zm52.7629322.2346445V3.510335h-6.9509654v20.187427h-3.6197935V3.5103351h-6.9683362V.301305h17.5390951zm7.0725606 0v23.396457H66.670208V.3013049h3.6184572zm16.5730151 2.957054c-2.4359112 0-4.4509161.8399207-6.0436787 2.5184289-1.5593573 1.6465111-2.3397041 3.7236483-2.3397041 6.2314114 0 2.4970975.7803468 4.5689019 2.3397041 6.2140798 1.5927626 1.6798414 3.6077675 2.519762 6.0436787 2.519762 2.434575 0 4.4322093-.8399206 5.9915666-2.519762 1.5606935-1.6451779 2.339704-3.7169823 2.339704-6.2140798 0-2.5077631-.7790105-4.5849003-2.339704-6.2314114-1.5593573-1.6785082-3.5569916-2.5184289-5.9915666-2.5184289zM10.1672234 6.60071l-.3701302 1.2425493c-.2806042.91858-.5331479 1.651844-.7576312 2.1997923L6.4806195 16.409117h7.4066131l-2.5414718-6.3660654c-.2365092-.5479483-.4890529-1.259881-.7576312-2.1331319-.2578885-.7385969-.3981906-1.175889-.4209062-1.3092097z"/></clipPath><clipPath id="c"><path d="M17.5493818 0v.3240506l-5.34697 6.7848102c-.3118607.396962-.6525721.7723206-1.022134 1.1233755-.2243932.2289358-.3615224.3631234-.4113876.4000218L10.754 8.641l.3641848.0405715c1.8325821.2358198 3.3540377.8910692 4.5662544 1.9657484l.2383207.2205282C17.3075866 12.2072574 18 13.9247257 18 16.0229536c0 2.4600844-.854526 4.4219409-2.5622042 5.8842194C13.8001832 23.3019409 11.6762326 24 9.0686918 24c-2.0648756 0-3.9277973-.4860759-5.590139-1.4636287C1.886277 21.6087764.7267594 20.3760338 0 18.8475949l3.184552-1.6337552c.553656 1.0194092 1.2694245 1.8254852 2.1459319 2.4155274 1.0152648.691308 2.203633 1.036962 3.5664784 1.036962 3.5183941 0 5.2782781-1.5918987 5.2782781-4.7797468 0-3.1068355-1.9041368-4.6609283-5.7110365-4.6609283-.7047779 0-1.3971912.0621097-2.07724.1876793-.5426653.1012659-1.0042742.2281857-1.3848268.3740085l-.1731034-.3227004 5.555793-7.0427005c.2074493-.2592405.478095-.5562869.813311-.883038l.4327583-.4266666-.6580674.0675105c-.5069455.0459072-.9397039.070211-1.2982751.070211H2.1294459V0h15.4199359z"/></clipPath><clipPath id="d"><path d="M12.1069831 0c3.3789416 0 6.2299236 1.1252083 8.5542826 3.375625 2.3457447 2.2837462 3.5192853 5.162093 3.5192853 8.6323741 0 3.4609488-1.1735406 6.3379625-3.5192853 8.6323742C18.3369067 22.8801244 15.4859247 24 12.1069831 24c-3.401664 0-6.2633388-1.1198756-8.5876978-3.3596267C1.1735406 18.3459616 0 15.4689479 0 12.0079991c0-3.470281 1.1735406-6.348628 3.5192853-8.6323742C5.8436443 1.1252083 8.7053191 0 12.1069831 0zm22.1448991.0333296c3.0421167 0 5.2475177 1.2265304 6.6175395 3.678258l-2.8630114 1.763804c-.8647845-1.5224975-2.1158484-2.2837462-3.7545281-2.2837462-2.0209493 0-3.0314239.906566-3.0314239 2.721031 0 1.3985113 1.128096 2.591712 3.384288 3.5769359l1.515712.6879235c2.1332242.9412288 3.659629 1.914454 4.580551 2.922342 1.0318603 1.1758693 1.5491271 2.6543717 1.5491271 4.434174 0 2.0037773-.713748 3.6009332-2.1385707 4.7861348C38.7081288 23.4400622 36.8836607 24 34.6394981 24c-2.0998091 0-3.9069013-.4799467-5.4226132-1.4438396-1.3138844-.8172425-2.3230224-1.9491167-3.0314239-3.3929563l2.9980087-1.662482c.6509275 1.0638818 1.3299236 1.8357961 2.0369886 2.3170759.920922.6385957 2.0383251.957227 3.3508729.957227 2.7052918 0 4.0579378-1.0692145 4.0579378-3.2076436 0-.9398956-.3314785-1.7291412-.9930988-2.3677369-.5506819-.503944-1.5264048-1.0625486-2.9298418-1.6784802l-1.5491271-.6892567c-1.8632297-.8292412-3.2105292-1.713143-4.0418985-2.6543718-.96503-1.0958782-1.447545-2.4970558-1.447545-4.1982002 0-1.734474.6121658-3.1583157 1.8351609-4.2661926C30.7379433.5932674 32.3204855.0333296 34.2518822.0333296zM85.9264321 0c3.3789416 0 6.2299236 1.1252083 8.5542826 3.375625C96.8264594 5.6593711 98 8.537718 98 12.007999c0 3.4609488-1.1735406 6.3379625-3.5192853 8.6323742C92.1563557 22.8801244 89.3053737 24 85.9264321 24c-3.4003274 0-6.2633388-1.1198756-8.5876978-3.3596267-2.3457447-2.2944117-3.5179487-5.1714254-3.5179487-8.6323742 0-3.470281 1.172204-6.348628 3.5179487-8.6323742C79.6630933 1.1252083 82.5261047 0 85.9264321 0zM46.7625205.0666593L57.960611 13.1345406 69.0731588.0666593h.37024V23.697367h-3.4858702V11.5547161c0-.5252749.0227224-1.2371958.068167-2.1330963l.0668303-1.209199-.7231042 1.0412177c-.5279596.7505833-.9824059 1.3331852-1.3646754 1.7464726l-5.9104746 7.0885457h-.4036552l-5.8930988-7.0885457c-.37024-.4132874-.808647-.9852239-1.3138843-1.713143l-.757856-1.0745473.068167 1.209199c.044108.8959005.0668303 1.6078214.0668303 2.1330963V23.697367h-3.4858702V.0666593h.387616zM12.1069831 3.2583046c-2.436634 0-4.4509002.8399067-6.045472 2.51972C4.5016913 7.4231753 3.721113 9.5002779 3.721113 12.0079992c0 2.4970559.7805783 4.5701589 2.3403983 6.2139762 1.5945717 1.6798134 3.608838 2.5210533 6.0454719 2.5210533 2.4352973 0 4.4335243-.8412399 5.9946808-2.5210533 1.55982-1.6438173 2.3403983-3.7169203 2.3403983-6.2139762 0-2.5077213-.7805783-4.5848239-2.3403983-6.2299744-1.5611565-1.6798134-3.5593835-2.51972-5.9946808-2.51972zm73.819449 0c-2.4352973 0-4.4509002.8399067-6.0441353 2.51972-1.5611566 1.6451506-2.3403983 3.7222532-2.3403983 6.2299745 0 2.4970559.7792417 4.5701589 2.3403983 6.2139762 1.5932351 1.6798134 3.608838 2.5210533 6.0441353 2.5210533 2.4366339 0 4.4348609-.8412399 5.9946808-2.5210533 1.55982-1.6438173 2.3403983-3.7169203 2.3403983-6.2139762 0-2.5077213-.7805783-4.5848239-2.3403983-6.2299744-1.5598199-1.6798134-3.5580469-2.51972-5.9946808-2.51972z"/></clipPath></defs><g clip-path="url(#a)"><g clip-path="url(#b)" transform="translate(108)"><path fill="#FFF" d="M0 0h122v24H0V0z"/></g><g clip-path="url(#c)" transform="translate(242)"><path fill="#FFF" d="M0 0h18v24H0V0z"/></g><g clip-path="url(#d)"><path fill="#FFF" d="M0 0h98v24H0V0z"/></g></g></svg>