<svg xmlns="http://www.w3.org/2000/svg" xmlns:xlink="http://www.w3.org/1999/xlink" width="208" height="24" viewBox="0 0 208 24"><defs><path id="a" d="M34.5718685.00081v17.0772814c0 2.278951-.6514808 4.0192163-1.9503364 5.2207959C31.4266944 23.4329624 29.7774626 24 27.6752052 24c-1.668393 0-3.105483-.3915259-4.3099013-1.1732277-1.0593406-.6804451-1.8914841-1.6214574-2.5019052-2.8243871l3.0343128-1.8536728c.4721868.8397556.9539541 1.4567465 1.4494079 1.8536728.6076838.4657808 1.3275975.6979962 2.155635.6979962 2.2172246 0 3.3272055-1.2299315 3.3272055-3.6911445V.0008101h3.7419086zM6.6037707 0c3.8390832 0 6.9377229 1.0841218 9.2931819 3.2496653 2.3445096 2.1776943 3.5188174 5.0466343 3.5188174 8.6054701 0 3.5493851-1.1619899 6.4021241-3.4832324 8.5555168-2.3581962 2.188495-5.4664165 3.2820674-9.328767 3.2820674H0V0zM44 .00054v23.6913696h-3.7063235V.00054H44zM6.3634345 3.2503403H3.742456v17.2109403h2.6209784c3.0110456 0 5.3158642-.8046533 6.9130871-2.41396 1.5055229-1.5080499 2.2582843-3.5723366 2.2582843-6.1915102 0-2.6299742-.7527614-4.6996613-2.2582843-6.2077112-1.5972229-1.598506-3.9020415-2.3977589-6.9130871-2.3977589z"/><path id="b" d="M7.6938533 11.9738696H3.6380137V3.5094767h4.0558396c3.2521234 0 4.8781851 1.41051 4.8781851 4.2315298 0 2.8223531-1.6260617 4.2328631-4.8781851 4.2328631M31.5207137 0c3.3638985 0 6.2021878 1.1252083 8.514868 3.3742917 2.3366321 2.2850795 3.5036174 5.1620931 3.5036174 8.6337074 0 3.4596156-1.1669853 6.3379625-3.5036174 8.631041C37.7229015 22.8801244 34.8846122 24 31.5207137 24c-3.3865197 0-6.2354543-1.1198756-8.5494652-3.3609599-2.3353014-2.2930785-3.5036174-5.1714254-3.5036174-8.631041 0-3.4716143 1.168316-6.348628 3.5036174-8.6337073C25.2852594 1.1252082 28.134194 0 31.5207137 0zm50.3251458.066126l12.8740973 13.8557938c.3579465.3919564.827668.9465615 1.4078341 1.6624819l.754482.957227-.0332664-.3359627c-.0226212-.122653-.0332664-.251972-.0332664-.3852905-.0226212-.1573158-.0332664-.3199644-.0332664-.4879458-.1011299-.8945672-.1516948-1.6158204-.1516948-2.1664259V.3007666H100v23.6320409h-.4524231L86.6734796 10.0423508c-.3792369-.4146205-.8596038-.9745583-1.4411005-1.6798133l-.754482-.9398956.1503642 1.1425397c.0678634.8959005.1011298 1.6398178.1011298 2.2330853v12.8985668H81.36017V.066126h.4856895zM48.3585692.0666593l12.8740973 13.8544606c.3579465.3919564.8276681.9465615 1.4091648 1.6624819l.7531513.957227-.0332664-.3359627c-.0226211-.1213198-.0332664-.2506388-.0332664-.3852905-.0226211-.1559827-.0332664-.3186313-.0332664-.4866126-.1011298-.8945673-.1516948-1.6171536-.1516948-2.1664259V.3012999h3.3705518v23.6307077h-.4537537L53.1861894 10.0415509c-.379237-.4132874-.8596038-.9732252-1.4411005-1.6798133l-.754482-.9398956.1516948 1.143873c.0665328.8959004.0997992 1.6384845.0997992 2.2330851v12.8972337h-3.3692211V.0666593h.4856894zM7.8282496.3004999c2.5362304 0 4.5481824.5999334 6.0345252 1.7971337 1.6313843 1.28919 2.4484071 3.1703144 2.4484071 5.643373 0 3.3716253-1.58215 5.6047105-4.7451195 6.7032551l5.4982708 9.2523053h-4.1569695L7.861516 15.0308632H3.6380136v8.6657038H0V.3005zm67.92906.0004V23.696967H72.153893V.3008999h3.6034166zM31.5207137 3.2569714c-2.425786 0-4.4310847.8399067-6.0185574 2.51972-1.5528756 1.6451506-2.3299787 3.7235864-2.3299787 6.2313077 0 2.4970559.7771031 4.5688257 2.3299787 6.2139762 1.5874727 1.6798134 3.5927714 2.5197201 6.0185574 2.5197201 2.4244553 0 4.4137861-.8399067 5.9679924-2.5197201 1.5528756-1.6451505 2.3299787-3.7169203 2.3299787-6.2139762 0-2.5077213-.7771031-4.586157-2.3299787-6.2313076-1.5542063-1.6798134-3.5435371-2.51972-5.9679924-2.51972z"/></defs><g fill="#141414" fill-rule="evenodd"><path d="M178.3915023 24h3.6688724v-3.896017h2.8731001v-3.0190784h-2.8731001V0h-.3046211L166 17.6753319v2.4286511h12.3915023V24zm-8.0301873-6.728997c0 .0107107.2026334-.1686935.6092421-.5408903.4616284-.4270892.8333467-.8140132 1.1151547-1.1634498l4.9531119-5.9029342c.3489052-.4163785.7098879-.8876493 1.0816061-1.41649.2938855-.4163785.4401573-.6359478.4401573-.658708l-.0174452.2369741c-.0228131.1914538-.0442841.388263-.0670972.5904274-.0563616.6292536-.0845424 1.1634497-.0845424 1.6025884v7.066384h-5.7475422c-.4737059 0-.9970637.0334709-1.5727572.1017517l-.709888.0843467zM188.9646718 24h6.4735333c3.7869634 0 6.835858-1.0844583 9.146684-3.2547138 2.2759354-2.1367846 3.4152451-4.9644093 3.4152451-8.4842129 0-3.5305143-1.1500452-6.3755439-3.4487937-8.5337499-2.310826-2.1474952-5.3489851-3.2225817-9.1131354-3.2225817h-6.4735333V24zm3.6675304-3.2051768V3.7273234h2.5698209c2.9522748 0 5.2121069.7925918 6.7794964 2.3777753 1.4761374 1.4954815 2.2142061 3.5479193 2.2142061 6.1559746 0 2.5973446-.7380687 4.6444271-2.2142061 6.1399085-1.5673895 1.5958942-3.8272216 2.3938414-6.7794964 2.3938414h-2.5698209z"/><use xlink:href="#a"/><use transform="translate(56)" xlink:href="#b"/></g></svg>