<svg width="150" height="24" viewBox="0 0 150 24" xmlns="http://www.w3.org/2000/svg" xmlns:xlink="http://www.w3.org/1999/xlink"><defs><path d="M34.5718685.00081v17.0772814c0 2.278951-.6514808 4.0192163-1.9503364 5.2207959C31.4266944 23.4329624 29.7774626 24 27.6752052 24c-1.668393 0-3.105483-.3915259-4.3099013-1.1732277-1.0593406-.6804451-1.8914841-1.6214574-2.5019052-2.8243871l3.0343128-1.8536728c.4721868.8397556.9539541 1.4567465 1.4494079 1.8536728.6076838.4657808 1.3275975.6979962 2.155635.6979962 2.2172246 0 3.3272055-1.2299315 3.3272055-3.6911445V.0008101h3.7419086zM6.6037707 0c3.8390832 0 6.9377229 1.0841218 9.2931819 3.2496653 2.3445096 2.1776943 3.5188174 5.0466343 3.5188174 8.6054701 0 3.5493851-1.1619899 6.4021241-3.4832324 8.5555168-2.3581962 2.188495-5.4664165 3.2820674-9.328767 3.2820674H0V0zM44 .00054v23.6913696h-3.7063235V.00054H44zM6.3634345 3.2503403H3.742456v17.2109403h2.6209784c3.0110456 0 5.3158642-.8046533 6.9130871-2.41396 1.5055229-1.5080499 2.2582843-3.5723366 2.2582843-6.1915102 0-2.6299742-.7527614-4.6996613-2.2582843-6.2077112-1.5972229-1.598506-3.9020415-2.3977589-6.9130871-2.3977589z" id="a"/></defs><g fill="#141414" fill-rule="evenodd"><path d="M54 23.7640355h3.5189754l1.7173882-4.2902631h9.9675345l1.7334261 4.2902631h3.7889462L64.4553529 0h-.420994L54 23.7640355zm6.4819713-7.3296464l2.5593763-6.4018769c.2245302-.5510307.4771266-1.2884197.7577892-2.212167l.3702075-1.2495391c.0227203.1340707.1630516.5738227.420994 1.3165745.2686343.8781632.5212307 1.5941009.7577892 2.1451316l2.542002 6.4018769h-7.4081582zM83.8518168 24h.4544062L94.3071697.2359645h-3.5523876l-5.2016149 12.6348248c-.303383.6636501-.6294863 1.5646054-.9769734 2.7015251-.2699708.9237473-.4036197 1.4184682-.4036197 1.4868443 0-.045584-.1523597-.5523714-.4557427-1.520362-.3474871-1.1369197-.666908-2.0271493-.959599-2.6680074L77.4714186.2359645h-3.8891828L83.8518168 24zm9.3113184-.2359645h3.5189753l1.7173883-4.2902631h9.9675345l1.7334261 4.2902631h3.7889461L103.6184881 0h-.420994L93.1631352 23.7640355zm6.4819713-7.3296464l2.5593763-6.4018769c.2245301-.5510307.4771266-1.2884197.7577892-2.212167l.3702075-1.2495391c.0227203.1340707.1630516.5738227.420994 1.3165745.2699707.8781632.5225672 1.5941009.7577892 2.1451316l2.542002 6.4018769h-7.4081582zm20.1261868 7.3296464h3.6205485V3.4630468h6.953752V.2359645h-17.5440902v3.2270823h6.9697897v20.3009887zm9.5024363 0h3.5189754l1.7173883-4.2902631h9.9675344l1.7334262 4.2902631H150L139.7290826 0h-.4209941l-10.0343589 23.7640355zm6.4819714-7.3296464l2.5593763-6.4018769c.2245301-.5510307.4771265-1.2884197.7577892-2.212167l.3702074-1.2495391c.0227203.1340707.1630517.5738227.420994 1.3165745.2699708.8781632.5225672 1.5941009.7577893 2.1451316l2.5420019 6.4018769h-7.4081581z"/><use xlink:href="#a"/></g></svg>