<svg version="1.1" id="图层_1" xmlns="http://www.w3.org/2000/svg" x="0" y="0" viewBox="0 0 470 24" xml:space="preserve"><style>.st0{fill-rule:evenodd;clip-rule:evenodd;fill:#fff}</style><g id="mavic_x2F_dji-mavic-3-enterprise-series_x2F_en_x2F_24"><g id="_xD83D__xDEAB_" transform="translate(195 .5)"><g id="Color-颜色"><path id="path-1_1_" class="st0" d="M18.3 0l14.4 18.6 1 1.5V.3H35V23h-.4L20 4.4c-.2-.2-.4-.5-.7-1l-.3-.5v19.9h-1.3V0h.6zm126.8 0c1.4 0 2.6.3 3.6 1 .8.5 1.5 1.3 2.2 2.3l-1.1.7c-.5-.9-1.1-1.5-1.8-1.9-.8-.5-1.8-.8-2.9-.8-2.8 0-4.2 1.3-4.2 3.8 0 1.9 1.3 3.4 3.9 4.6l2.1 1c3.6 1.6 5.4 3.9 5.4 6.7 0 1.7-.6 3.1-1.9 4.2-1.2 1-2.8 1.6-4.8 1.6s-3.6-.5-5-1.4c-1.1-.8-2-1.8-2.6-3.1l1.2-.6c.6 1.2 1.4 2.1 2.2 2.7 1.1.8 2.5 1.2 4.1 1.2 1.5 0 2.8-.4 3.8-1.2 1.1-.8 1.6-2 1.6-3.3 0-2.2-1.5-4.1-4.6-5.5l-2.1-1c-3.1-1.5-4.7-3.4-4.7-5.8 0-1.5.5-2.7 1.6-3.7 1.1-1.1 2.4-1.5 4-1.5zM13.2.3v1.2H1.4v9.4H12V12H1.4v9.5h12.3v1.2H0V.3h13.2zm41.2 0v1.2h-7.2v21.3h-1.4V1.5h-7.2V.3h15.8zm16.9 0v1.2H59.5v9.4h10.6V12H59.5v9.5h12.3v1.2H58.1V.3h13.2zM82 .3c2.4 0 4.3.6 5.7 1.7 1.4 1.2 2.1 2.8 2.1 4.9 0 3.3-1.6 5.4-4.9 6.2l5.7 9.6H89l-5.5-9.4-.7.1h-5.5v9.3H76V.3h6zm19.2 0c5.3 0 7.9 2.2 7.9 6.7s-2.6 6.7-7.9 6.7h-4.6v9.1h-1.4V.3h6zm18.1 0c2.4 0 4.3.6 5.7 1.7 1.4 1.2 2.1 2.8 2.1 4.9 0 3.3-1.6 5.4-4.9 6.2l5.7 9.6h-1.6l-5.5-9.4-.7.1h-5.5v9.3h-1.4V.3h6.1zm14.6 0v22.5h-1.4V.3h1.4zm36.2 0v1.2h-11.8v9.4h10.6V12h-10.6v9.5h12.3v1.2H157V.3h13.1zM101 1.5h-4.5v11h4.5c4.4 0 6.6-1.8 6.6-5.5.1-3.7-2.2-5.5-6.6-5.5zm-19.1 0h-4.6v10.8h4.6c4.4 0 6.6-1.8 6.6-5.4-.1-3.6-2.2-5.4-6.6-5.4zm37.3 0h-4.6v10.8h4.6c4.4 0 6.6-1.8 6.6-5.4-.1-3.6-2.3-5.4-6.6-5.4z"/></g></g><g id="_xD83D__xDEAB__1_" transform="translate(374.583333 .5)"><g id="Color-颜色_1_"><path id="path-3_1_" class="st0" d="M7 0c1.4 0 2.6.3 3.6 1 .8.5 1.5 1.3 2.2 2.3l-1.1.7c-.5-.9-1.1-1.6-1.7-2-.8-.5-1.8-.8-3-.8-2.8 0-4.2 1.3-4.2 3.8 0 1.9 1.3 3.4 3.9 4.6l2.1 1c3.6 1.6 5.4 3.9 5.4 6.7 0 1.7-.6 3.1-1.9 4.2-1.2 1-2.8 1.6-4.8 1.6s-3.6-.5-5-1.4c-1.1-.8-2-1.8-2.6-3.1l1.2-.6c.6 1.2 1.4 2.1 2.2 2.7 1.1.8 2.5 1.2 4.2 1.2 1.5 0 2.8-.4 3.8-1.2 1.1-.8 1.6-2 1.6-3.3 0-2.2-1.5-4.1-4.6-5.5l-2.1-1C3.1 9.4 1.5 7.4 1.5 5c0-1.5.5-2.7 1.6-3.7C4.2.4 5.5 0 7 0zm79.7 0c1.4 0 2.6.3 3.6 1 .8.5 1.5 1.3 2.2 2.3l-1.1.7c-.5-.9-1.1-1.5-1.8-1.9-.8-.5-1.8-.8-3-.8-2.8 0-4.2 1.3-4.2 3.8 0 1.9 1.3 3.4 3.9 4.6l2.1 1c3.6 1.6 5.4 3.9 5.4 6.7 0 1.7-.6 3.1-1.9 4.2-1.2 1-2.8 1.6-4.8 1.6s-3.6-.5-5-1.4c-1.1-.8-2-1.8-2.6-3.1l1.2-.6c.6 1.2 1.4 2.1 2.2 2.7 1.1.8 2.5 1.2 4.2 1.2 1.5 0 2.8-.4 3.8-1.2 1.1-.8 1.6-2 1.6-3.3 0-2.2-1.5-4.1-4.6-5.5l-2.1-1c-3.1-1.5-4.7-3.4-4.7-5.8 0-1.5.5-2.7 1.6-3.7C83.8.4 85.1 0 86.7 0zM32.2.3v1.2H20.4v9.4H31V12H20.4v9.5h12.3v1.2H19V.3h13.2zm10.7 0c2.4 0 4.3.6 5.7 1.7 1.4 1.2 2.1 2.8 2.1 4.9 0 3.3-1.6 5.4-4.9 6.2l5.7 9.6h-1.6l-5.5-9.4-.7.1h-5.5v9.3h-1.4V.3h6.1zm14.6 0v22.5h-1.4V.3h1.4zM77 .3v1.2H65.2v9.4h10.6V12H65.2v9.5h12.3v1.2H63.8V.3H77zM42.8 1.5h-4.6v10.8h4.6c4.4 0 6.6-1.8 6.6-5.4-.1-3.6-2.2-5.4-6.6-5.4z"/></g></g><g id="_xD83D__xDEAB__2_" transform="translate(165)"><g id="Color-颜色_2_"><path id="path-5_1_" class="st0" d="M9.1 24c2.6 0 4.7-.7 6.4-2.1 1.7-1.5 2.6-3.4 2.6-5.9 0-2.1-.7-3.8-2.1-5.2-1.3-1.3-3.1-2-5.2-2.2l.4-.4c.4-.4.7-.7 1-1.1L17.5.3V0H2.1v3.2h7.5c.4 0 .8 0 1.3-.1l.7-.1-.4.4c-.3.3-.6.6-.8.9l-5.6 7 .2.5c.4-.1.8-.3 1.4-.4.7-.1 1.4-.2 2.1-.2 3.8 0 5.7 1.6 5.7 4.7 0 3.2-1.8 4.8-5.3 4.8-1.4 0-2.6-.3-3.6-1-.9-.6-1.6-1.4-2.1-2.4L0 18.8c.7 1.5 1.9 2.8 3.5 3.7C5.1 23.5 7 24 9.1 24"/></g></g><g id="_xD83D__xDEAB__3_" transform="translate(56)"><g id="Color-颜色_3_"><path id="path-7_1_" class="st0" d="M90.2 0c4.2 0 7.4 1.5 9.5 4.6l-2.8 2c-1.5-2.2-3.7-3.4-6.7-3.4-2.4 0-4.5.8-6.1 2.5-1.6 1.6-2.4 3.7-2.4 6.2s.8 4.6 2.4 6.2c1.6 1.7 3.6 2.5 6.1 2.5 1.6 0 3-.3 4.1-1 1.1-.6 2.1-1.5 2.9-2.7l2.8 2c-2.2 3.3-5.5 5-9.8 5-3.4 0-6.3-1.1-8.6-3.4-2.4-2.2-3.6-5-3.6-8.5s1.2-6.3 3.6-8.6C83.9 1.1 86.7 0 90.2 0zM49.3.3l5.4 12.6c.3.6.6 1.5 1 2.7.3 1 .5 1.5.5 1.5 0-.1.1-.6.4-1.5.4-1.1.7-2 1-2.7L62.9.3h3.6L56.2 23.9h-.5L45.3.3h4zM.4 0l11.3 13.1L23 0h.4v23.7h-3.5V11.5c0-.5 0-1.2.1-2.1V8.2l-.7 1c-.5.8-1 1.3-1.4 1.7l-6 7.1h-.4l-6-7.1c-.4-.4-.8-1-1.3-1.7l-.8-1 .1 1.2c0 .9.1 1.6.1 2.1v12.2H0V0h.4zm36.9 0l10.4 23.7h-3.8l-1.8-4.3H32l-1.7 4.3h-3.6L36.9 0h.4zm36.1.3v23.4h-3.7V.3h3.7zM37 6.6l-.4 1.2c-.3.9-.5 1.7-.8 2.2l-2.6 6.4h7.5L38.2 10c-.2-.5-.5-1.3-.8-2.1-.2-.8-.3-1.2-.4-1.3z"/></g></g><g id="_x2A_atom_x5F_single_x2F_en_x2F_dji_x2F_24" transform="translate(0 .5)"><g id="Color-颜色_4_"><path id="path-9_1_" class="st0" d="M34.6 0v17.1c0 2.3-.7 4-2 5.2-1.2 1.1-2.8 1.7-4.9 1.7-1.7 0-3.1-.4-4.3-1.2-1.1-.7-1.9-1.6-2.5-2.8l3-1.9c.5.8 1 1.5 1.4 1.9.6.5 1.3.7 2.2.7 2.2 0 3.3-1.2 3.3-3.7V0h3.8zm-28 0c3.8 0 6.9 1.1 9.3 3.2 2.3 2.2 3.5 5 3.5 8.6 0 3.5-1.2 6.4-3.5 8.6-2.4 2.2-5.5 3.3-9.3 3.3H0V0h6.6zM44 0v23.7h-3.7V0H44zM6.4 3.3H3.7v17.2h2.6c3 0 5.3-.8 6.9-2.4 1.5-1.5 2.3-3.6 2.3-6.2s-.8-4.7-2.3-6.2C11.7 4 9.4 3.3 6.4 3.3z"/></g></g></g></svg>