<svg width="254" height="32" viewBox="0 0 254 32" xmlns="http://www.w3.org/2000/svg" xmlns:xlink="http://www.w3.org/1999/xlink"><defs><path d="M12.074166 32c3.4717115 0 6.2995649-.9307454 8.4799021-2.790436 2.2736235-1.9497046 3.4113498-4.5655134 3.4113498-7.8456259 0-2.7976371-.9218876-5.0875949-2.7656627-6.873474-1.7669511-1.7084669-4.0625242-2.6986216-6.8903777-2.9704641 0 .0324051.1920599-.1512236.5761797-.543685.4920392-.4680731.9456664-.9685513 1.3608816-1.497834L23.3654593.4320675V0H2.83517v4.333277h10.0456476c.4774061 0 1.0535858-.032405 1.7285392-.0936145l.876159-.0900141-.5761797.5688889c-.4463107.435668-.8066516.83173-1.0828521 1.177384l-7.39705 9.3902672.2304719.4302672c.5066723-.1944304 1.121264-.3636568 1.843775-.4986779.9054253-.1674262 1.8273129-.2502391 2.7656627-.2502391 5.0685523 0 7.6037431 2.0721237 7.6037431 6.214571 0 4.2504641-2.3431309 6.3729958-7.0275634 6.3729958-1.8145088 0-3.3967166-.460872-4.7484525-1.382616-1.1669926-.786723-2.1199756-1.8614909-2.8571197-3.2207033L0 25.1301266c.967616 2.0379184 2.5114119 3.6815752 4.6313874 4.9183685C6.8446492 31.3518987 9.3249657 32 12.074166 32" id="a"/><path d="M46.0294042.00108v22.7697086c0 3.0386013-.8673894 5.358955-2.5967015 6.9610611C41.8418813 31.2439499 39.6460741 32 36.8471032 32c-2.2213187 0-4.1346777-.5220346-5.7382548-1.5643036-1.4104189-.9072601-2.5183448-2.1619433-3.3310669-3.7658495l4.0399209-2.4715638c.6286751 1.1196742 1.2701059 1.9423287 1.9297592 2.4715638.8090775.6210411 1.7675793.9306616 2.8700385.9306616 2.9520396 0 4.4298817-1.6399086 4.4298817-4.921526V.0010801h4.9820224zM8.7923402 0c5.1114019 0 9.2369683 1.4454958 12.3730549 4.332887 3.1215085 2.9035924 4.6849961 6.7288458 4.6849961 11.4739602 0 4.7325135-1.5470874 8.5361655-4.6376177 11.4073557-3.139731 2.9179934-7.2780532 4.37609-12.4204333 4.37609H0V0zm49.7897924.00072v31.5884928h-4.934644V.00072h4.934644zM8.4723536 4.3337871H4.9827514v22.9479203h3.4896024c4.0089426 0 7.077606-1.0728711 9.2041679-3.2186132 2.0044713-2.0107332 3.006707-4.7631156 3.006707-8.2553469 0-3.5066324-1.0022357-6.2662152-3.006707-8.2769484-2.1265619-2.1313412-5.1952253-3.1970118-9.204168-3.1970118z" id="b"/><path d="M47.1287782.000713l20.1196293 25.935251 1.4463451 2.0676901-.06819-.830641c-.0448618-.631002-.06819-1.1318821-.06819-1.5062053V.3607763h1.7621724V32h-.5634645L49.6123286 6.0629665c-.2386649-.315501-.5544922-.7557764-.9474817-1.3226087l-.4755353-.7415164.06819.830641.0681899 1.5258127v25.2864241h-1.7621723V.000713h.565259zM.4522072 0l14.2194026 18.5717787L28.8910125 0h.4522071v31.6410062h-1.7837059V6.80377l.0879291-2.716517c0 .0303023-.1812417.3297609-.5419308.8983757-.4360569.6737817-.8290464 1.2352666-1.1753797 1.6844544l-11.0754862 14.438181h-.4988635L3.4364155 6.6700831c-.3319775-.4188855-.7159947-.9750228-1.153846-1.661282-.3768394-.5989172-.565259-.9215481-.565259-.9215481l.0915181 2.716517v24.8372362H0V0h.4522072zm79.432519.3597068v31.2809429H77.986174V.3597067h1.8985522zm-40.9588422 0v31.2809429h-1.9003467V.3597067h1.9003467z" id="c"/></defs><g fill="#FFF" fill-rule="evenodd"><use xlink:href="#a" transform="translate(133.819884)"/><use xlink:href="#b" transform="translate(.678674)"/><path d="M75.237752 31.5959281h4.883954V20.0255883h5.6699598l6.7739406 11.5703398h5.5806409l-7.3813087-12.3553429c4.2462175-1.464983 6.3702195-4.4483507 6.3702195-8.9483229 0-3.303777-1.0968353-5.8154308-3.2869332-7.5349613C91.8528421 1.158814 89.1518404.3577905 85.7470064.3577905H75.237752v31.2381376zm4.883954-15.6519997V4.6423764h5.4448763c4.3659048 0 6.5488571 1.8832953 6.5488571 5.6498859 0 3.7683707-2.1829523 5.6516661-6.5488571 5.6516661H80.121706zM111.6655465 32c3.0011129 0 5.4377308-.747622 7.3134263-2.2428659 1.906064-1.5842465 2.8582028-3.7149691 2.8582028-6.3903877 0-2.3781499-.6895414-4.3504478-2.0704106-5.9204539-1.2290272-1.3457195-3.2708558-2.6469378-6.1201267-3.9018746l-2.0257512-.9202871c-3.015404-1.3154586-4.5231059-2.9068254-4.5231059-4.7758803 0-2.420871 1.3505008-3.6330867 4.049716-3.6330867 2.1900979 0 3.8639329 1.0164099 5.0197187 3.0510096l3.8246326-2.3550091C118.1625987 1.637648 115.2132907 0 111.1474972 0c-2.579528 0-4.6945981.747622-6.3452102 2.2428659-1.6363211 1.4792234-2.4526952 3.3785392-2.4526952 5.6943873 0 2.2731267.644882 4.1421816 1.934646 5.6071647 1.1111263 1.2549368 2.9100077 2.4368916 5.4020032 3.542304l2.0704107.9202871c1.8739092.8223841 3.1797506 1.5700061 3.9157378 2.2428658.8842565.850865 1.3272779 1.904656 1.3272779 3.1613729 0 2.8552039-1.8078132 4.2828058-5.4234398 4.2828058-1.7560083 0-3.2494193-.4254325-4.4784464-1.2780775-.9449933-.6425989-1.8542591-1.6750292-2.7242246-3.095511L100.3685 25.5419703c.9449933 1.9277966 2.2954941 3.437281 4.0515024 4.528453C106.4439673 31.3574011 108.860935 32 111.6655465 32z"/><use xlink:href="#c" transform="translate(173.762247)"/></g></svg>