<svg width="433" height="32" viewBox="0 0 433 32" xmlns="http://www.w3.org/2000/svg"><defs><clipPath id="a"><path d="M23.3991757 0v.4320675L16.2698825 9.478481c-.4158144.5292827-.8700962 1.0297609-1.3628454 1.497834-.3077393.3139691-.4923828.4942853-.5539307.5372616L14.339 11.521l.3919622.0427211c2.5163019.3078481 4.5963964 1.2037024 6.2429968 2.6875628l.2563875.2391802C23.0767822 16.2763432 24 18.566301 24 21.3639381c0 3.2801125-1.139368 5.8959213-3.4162723 7.8456259C18.4002442 31.0692546 15.5683102 32 12.0915891 32c-2.7531675 0-5.237063-.6481013-7.4535186-1.9515049C2.515036 28.8117018.9690124 27.168045 0 25.1301266l4.2460693-2.1783404c.738208 1.3592124 1.692566 2.4339803 2.8612426 3.2207033 1.3536864.921744 2.9381773 1.382616 4.7553045 1.382616 4.6911922 0 7.0377042-2.1225317 7.0377042-6.3729958 0-4.1424473-2.5388491-6.214571-7.6147153-6.214571-.9397039 0-1.8629217.0828129-2.7696535.2502391-.7235537.1350211-1.3390322.3042475-1.8464357.4986779l-.2308044-.4302672 7.407724-9.3902673c.276599-.345654.6374599-.7417159 1.0844146-1.177384l.5770111-.5688888-.8774233.090014c-.6759273.0612096-1.2529385.0936147-1.7310334.0936147H2.8392612V0h20.5599145z"/></clipPath><clipPath id="b"><path d="M46.0958247.00108v22.7697086c0 3.0386013-.8686411 5.358955-2.6004486 6.9610611C41.9022592 31.2439499 39.7032834 32 36.9002736 32c-2.224524 0-4.140644-.5220346-5.746535-1.5643036-1.4124542-.9072601-2.5219789-2.1619433-3.3358737-3.7658495l4.0457505-2.4715638c.6295823 1.1196742 1.2719387 1.9423287 1.9325439 2.4715638.810245.6210411 1.7701298.9306616 2.8741799.9306616 2.9562994 0 4.436274-1.6399086 4.436274-4.921526V.0010801h4.9892115zM8.8050275 0c5.1187777 0 9.2502974 1.4454958 12.3909092 4.332887 3.1260129 2.9035924 4.6917567 6.7288458 4.6917567 11.4739602 0 4.7325135-1.5493199 8.5361655-4.6443099 11.4073557-3.1442616 2.9179934-7.2885554 4.37609-12.438356 4.37609H0V0h8.8050275zm49.8616392.00072v31.5884928H53.724902V.00072h4.9417647zM8.4845793 4.3337871H4.9899414v22.9479203h3.4946379c4.0147276 0 7.087819-1.0728711 9.2174495-3.2186132 2.0073638-2.0107332 3.0110457-4.7631156 3.0110457-8.2553469 0-3.5066324-1.0036819-6.2662152-3.0110457-8.2769484-2.1296305-2.1313412-5.2027219-3.1970118-9.2174495-3.1970118z"/></clipPath><clipPath id="c"><path d="M120.21352 0c5.638505 0 9.860165 2.0630806 12.664979 6.1892418l-3.77585 2.6682984c-1.954706-2.9904879-4.918351-4.4857318-8.889129-4.4857318-3.259649 0-5.950754 1.1000723-8.071511 3.2966569-2.108122 2.1983645-3.162183 4.971686-3.162183 8.3181843 0 3.3340379 1.054061 6.1020193 3.162183 8.2986038 2.120757 2.2410858 4.811862 3.3642988 8.071511 3.3642988 2.106317 0 3.947315-.4503532 5.524797-1.3474996 1.469188-.8223841 2.743447-2.0114591 3.819167-3.5654447l3.775849 2.6006564C130.391347 29.7784947 126.018076 32 120.21352 32c-4.562786 0-8.398197-1.4952439-11.506234-4.4857318-3.167599-3.06525-4.7523-6.9066028-4.7523-11.5276186 0-4.6032152 1.584701-8.4303276 4.7523-11.4795572C111.815323 1.5023641 115.650734 0 120.21352 0zM65.7127773.3577905l7.1401821 16.7752128c.393468.850865.824839 2.0328197 1.2959177 3.542304.4097122 1.2851978.6136658 1.9580576.6136658 2.0185793 0-.0907826.1822949-.7476219.5450796-1.974078.4710788-1.5094843.9096693-2.7056794 1.3193815-3.5868053L83.6534774.3577905H88.4509L74.9448378 31.9092173h-.6136658L60.4605201.3577905h5.2522572zM.5234208.0427213l15.1196423 17.4480725L30.6508016.0427213h.4999571V31.595928h-4.7071776V15.3832119c0-.7031207.0306833-1.6518885.090245-2.8480837l.0920498-1.6145074-.9782554 1.3902208c-.7129353 1.0021695-1.3266011 1.7800523-1.8409974 2.3318685l-7.9812652 9.462758h-.5450796l-7.9596063-9.462758c-.4999572-.5518162-1.0901593-1.3172387-1.7724113-2.2891472l-1.023378-1.4329421.090245 1.6145074c.0613666 1.1961952.09205 2.144963.09205 2.8480837v16.2127162H0V.0427213h.5234208zm49.2430703 0l13.868847 31.5532068h-5.1150849l-2.3427594-5.6961673H42.7165541l-2.3192957 5.6961673h-4.7504953L49.1979478.0427213h.5685433zm48.1511062.3150692v31.2381376h-4.8876676V.3577905h4.8876676zm-48.5373546 8.410747l-.5017621 1.6572288c-.3790288 1.228236-.7201548 2.2072648-1.0233779 2.9388663l-3.4545775 8.4997497h10.0045574l-3.4347236-8.4997497c-.3176623-.7316015-.6587882-1.6839295-1.0233779-2.8480837-.3483456-.986149-.53786-1.5717861-.5667384-1.7480113z"/></clipPath><clipPath id="d"><path d="M15.9548074 0c5.5349788 0 9.6595683 1.976827 12.3755448 5.9286987l-1.4334814 1.0552585c-2.4761747-3.516934-6.1229371-5.2762923-10.9420634-5.2762923-4.012682 0-7.3539193 1.3618538-10.025488 4.087344-2.6697924 2.7094474-4.0055768 6.114082-4.0055768 10.2156863 0 4.087344 1.3357844 7.4937611 4.0055768 10.2174688 2.6715687 2.7254902 6.012806 4.087344 10.025488 4.087344 4.9523495 0 8.7270061-1.855615 11.3221935-5.5686274l1.4103894 1.0106952C25.8239802 29.9197861 21.5786017 32 15.9548074 32c-4.4905091 0-8.249179-1.4741533-11.2777858-4.4242424C1.557823 24.5365419 0 20.6827094 0 16.0106952c0-4.684492 1.557823-8.547237 4.6770216-11.5864528C7.7056284 1.4759358 11.4642983 0 15.9548074 0zM93.97918 0c1.9237426 0 3.5934731.4581105 5.0109677 1.3707665 1.1350613.7326203 2.1262423 1.7807486 2.9770943 3.1426025l-1.476113.9661319c-.7478263-1.197861-1.5595995-2.0962567-2.4406488-2.6951872-1.1332851-.7468805-2.4903852-1.1212121-4.0713002-1.1212121-3.8794588 0-5.8191883 1.7593583-5.8191883 5.2762923 0 2.6203209 1.80473 4.768271 5.4159662 6.4456328l2.8865021 1.3244207c4.982547 2.2762924 7.474708 5.3743316 7.474708 9.2959002 0 2.4117647-.866839 4.3565062-2.596964 5.8395722C99.6402768 31.2816399 97.4323247 32 94.7163482 32c-2.7142001 0-5.0038624-.6506239-6.8689868-1.9536542-1.5080864-1.0481283-2.6999897-2.4777183-3.581039-4.28877l1.6111123-.7860963c.8650625 1.631016 1.8882164 2.8734403 3.0659093 3.7272727 1.5365073 1.1087344 3.4460395 1.6613191 5.7285965 1.6613191 2.1031499 0 3.8492616-.5686274 5.2365589-1.7058824 1.4619026-1.1675579 2.1937416-2.7165775 2.1937416-4.6488413 0-3.114082-2.1262418-5.657754-6.3787256-7.6345811l-2.8865021-1.3244207c-4.3412992-2.0213904-6.5119488-4.7076649-6.5119488-8.0623886 0-2.0962567.7531551-3.802139 2.2612414-5.1194296C90.0180109.6221034 91.8156357 0 93.97918 0zm24.029908 0c1.923743 0 3.595249.4581105 5.012744 1.3707665 1.133285.7326203 2.126242 1.7807486 2.975318 3.1426025l-1.476113.9661319c-.74605-1.197861-1.559599-2.0962567-2.438872-2.6951872-1.135062-.7468805-2.492162-1.1212121-4.073077-1.1212121-3.879459 0-5.817412 1.7593583-5.817412 5.2762923 0 2.6203209 1.80473 4.768271 5.41419 6.4456328l2.886502 1.3244207c4.982547 2.2762924 7.474708 5.3743316 7.474708 9.2959002 0 2.4117647-.865062 4.3565062-2.595187 5.8395722C123.670185 31.2816399 121.462233 32 118.748033 32c-2.715977 0-5.005639-.6506239-6.870764-1.9536542-1.50631-1.0481283-2.699989-2.4777183-3.579262-4.28877l1.611112-.7860963c.865063 1.631016 1.88644 2.8734403 3.064133 3.7272727 1.536507 1.1087344 3.447816 1.6613191 5.728597 1.6613191 2.104926 0 3.849261-.5686274 5.236559-1.7058824 1.461902-1.1675579 2.193741-2.7165775 2.193741-4.6488413 0-3.114082-2.126242-5.657754-6.376949-7.6345811l-2.888279-1.3244207c-4.339522-2.0213904-6.510172-4.7076649-6.510172-8.0623886 0-2.0962567.753155-3.802139 2.259465-5.1194296C114.047919.6221034 115.845544 0 118.009088 0zm41.258329 0c5.534979 0 9.659568 1.976827 12.375545 5.9286987l-1.431705 1.0552585c-2.477951-3.516934-6.124714-5.2762923-10.94384-5.2762923-4.012682 0-7.353919 1.3618538-10.023712 4.087344-2.671568 2.7094474-4.005576 6.114082-4.005576 10.2156863 0 4.087344 1.334008 7.4937611 4.005576 10.2174688 2.669793 2.7254902 6.01103 4.087344 10.023712 4.087344 4.954126 0 8.727006-1.855615 11.32397-5.5686274L172 25.7575758C169.13659 29.9197861 164.892988 32 159.267417 32c-4.490509 0-8.249179-1.4741533-11.277786-4.4242424-3.117422-3.0392157-4.677021-6.8930482-4.677021-11.5650624 0-4.684492 1.559599-8.547237 4.677021-11.5864528C151.018238 1.4759358 154.776908 0 159.267417 0zM36.394795.3600713v29.6185383h14.9938242v1.6613191H34.5154601V.3600713h1.8793349zM68.656119 0l12.6419911 31.6399287h-1.9237427l-3.3341319-8.3743316H60.6662811l-3.2897242 8.3743316h-1.879335L68.0965816 0h.5595374zm67.833688.3582888v31.2816399h-1.879335V.3582887h1.879335zM68.3648043 3.4135472l-.3144067 1.0552585c-.2238149.71836-.4174326 1.2959002-.580853 1.7290553l-6.1087267 15.4278074h14.0292885L69.2813797 6.2655972c-.1776309-.4634582-.3801301-1.0623886-.603945-1.7967915-.0301973-.1336898-.0674998-.2691622-.1119075-.402852l-.2007229-.6524065z"/></clipPath></defs><g clip-path="url(#a)" transform="translate(220.7363737)"><path fill="#FFF" d="M0 0h24v32H0V0z"/></g><g clip-path="url(#b)" transform="translate(.7363737)"><path fill="#FFF" d="M0 0h58.6666667v32H0V0z"/></g><g clip-path="url(#c)" transform="translate(75.4030404)"><path fill="#FFF" d="M0 0h133.333333v32H0V0z"/></g><g clip-path="url(#d)" transform="translate(260.7363737)"><path fill="#FFF" d="M0 0h172v32H0V0z"/></g></svg>