<svg width="210" height="24" viewBox="0 0 210 24" xmlns="http://www.w3.org/2000/svg" xmlns:xlink="http://www.w3.org/1999/xlink"><defs><path d="M34.5718685.00081v17.0772814c0 2.278951-.6514808 4.0192163-1.9503364 5.2207959C31.4266944 23.4329624 29.7774626 24 27.6752052 24c-1.668393 0-3.105483-.3915259-4.3099013-1.1732277-1.0593406-.6804451-1.8914841-1.6214574-2.5019052-2.8243871l3.0343128-1.8536728c.4721868.8397556.9539541 1.4567465 1.4494079 1.8536728.6076838.4657808 1.3275975.6979962 2.155635.6979962 2.2172246 0 3.3272055-1.2299315 3.3272055-3.6911445V.0008101h3.7419086zM6.6037707 0c3.8390832 0 6.9377229 1.0841218 9.2931819 3.2496653 2.3445096 2.1776943 3.5188174 5.0466343 3.5188174 8.6054701 0 3.5493851-1.1619899 6.4021241-3.4832324 8.5555168-2.3581962 2.188495-5.4664165 3.2820674-9.328767 3.2820674H0V0zM44 .00054v23.6913696h-3.7063235V.00054H44zM6.3634345 3.2503403H3.742456v17.2109403h2.6209784c3.0110456 0 5.3158642-.8046533 6.9130871-2.41396 1.5055229-1.5080499 2.2582843-3.5723366 2.2582843-6.1915102 0-2.6299742-.7527614-4.6996613-2.2582843-6.2077112-1.5972229-1.598506-3.9020415-2.3977589-6.9130871-2.3977589z" id="a"/><path d="M90.1601397 0c4.2288793 0 7.3951241 1.5473104 9.4987343 4.6419314L96.8269869 6.643155c-1.4660296-2.2428658-3.6887632-3.3642988-6.6668472-3.3642988-2.4447362 0-4.463065.8250542-6.0536326 2.4724926-1.5810919 1.6487735-2.3716378 3.7287646-2.3716378 6.2386383 0 2.5005285.7905459 4.5765144 2.3716378 6.2239528 1.5905676 1.6808144 3.6088964 2.5232242 6.0536326 2.5232242 1.5797382 0 2.9604862-.337765 4.1435978-1.0106247 1.1018911-.6167882 2.0575853-1.5085943 2.8643753-2.6740836L100 19.0029482C97.7935105 22.3338711 94.5135571 24 90.1601397 24c-3.4220893 0-6.2986477-1.1214329-8.6296753-3.3642988-2.3756988-2.2989376-3.564225-5.1799522-3.564225-8.645714 0-3.4524114 1.1885262-6.3227457 3.564225-8.6096679C83.861492 1.1267731 86.7380504 0 90.1601397 0zM49.284583.2683429l5.3551365 12.5814096c.2951011.6381487.6186293 1.5246147.9719383 2.656728.3072842.9638983.4602494 1.4685431.4602494 1.5139345 0-.068087.1367211-.5607165.4088097-1.4805585.3533091-1.1321133.682252-2.0292596.9895361-2.690104L62.740108.2683429h3.598067L56.2086283 23.931913h-.4602493L45.3453901.2683429h3.9391929zM.3925656.0320409l11.3397317 13.0860544L22.9881012.0320409h.3749679v23.6649052h-3.5303833V11.5374089c0-.5273405.0230125-1.2389164.0676838-2.1360627l.0690374-1.2108806-.7336917 1.0426656c-.5347014.7516271-.9949507 1.3350392-1.380748 1.7489014l-5.9859488 7.0970685h-.4088098L5.490504 10.9820326c-.3749679-.4138622-.8176194-.987929-1.3293084-1.7168604L3.393662 8.1904656l.0676837 1.2108806c.046025.8971463.0690374 1.6087222.0690374 2.1360627v12.1595372H0V.0320409h.3925656zm36.9323028 0l10.4016352 23.6649052h-3.8363137l-1.7570695-4.2721255H32.0374156l-1.7394718 4.2721255h-3.5628714L36.8984609.0320409h.4264075zM73.438198.268343v23.428603h-3.6657507V.2683429h3.6657507zM37.035182 6.5764032l-.3763215 1.2429215c-.2842717.921177-.5401162 1.6554486-.7675335 2.2041497l-2.5909331 6.3748123h7.503418l-2.5760426-6.3748123c-.2382467-.548701-.4940912-1.262947-.7675335-2.1360627-.2612592-.7396117-.403395-1.1788396-.4250538-1.3110085z" id="b"/></defs><g fill="#FFF" fill-rule="evenodd"><use xlink:href="#a"/><use xlink:href="#b" transform="translate(56)"/><path d="M173.9103699 24c2.5620181 0 4.6475387-.6888802 6.2579116-2.0679757 1.6778654-1.4471826 2.5161232-3.3869945 2.5161232-5.819436 0-2.0746509-.6803251-3.7728208-2.0396256-5.0958447-1.3039566-1.2669522-2.9993701-2.0025588-5.0848907-2.2041497 0 .0226956.1417344-.1121433.4252032-.4031819.3631101-.3471102.6965234-.716916 1.0029397-1.1094176l5.254972-6.7112421V.2696779H167.09092v3.2121044h7.4147344c.3509614 0 .7761646-.0226957 1.2756097-.068087l.645229-.066752-.4238534.4205374c-.3293638.3257495-.5952845.616788-.8004619.8744507l-5.4574497 6.9635645.1700813.3190744c.3739088-.1455193.8261091-.2696779 1.3593005-.3698059.6695263-.1241586 1.3498515-.1855704 2.0409754-.1855704 3.7417884 0 5.6113328 1.5366301 5.6113328 4.6085553 0 3.1506926-1.7291598 4.7260389-5.1861295 4.7260389-1.3377029 0-2.5053244-.3417701-3.5028647-1.0266452-.8612053-.5820771-1.564478-1.3790955-2.108468-2.3870501L165 18.9041553c.7140715 1.5139345 1.8533461 2.7301552 3.417824 3.6499972C170.0497945 23.5180508 171.881543 24 173.91037 24zm14.0168581-.3030539h1.3606503V5.0958447l-.0688424-2.0345998c0 .0106803.1417344.2416421.4252032.6888803.3293638.5166601.618232.9318573.8679546 1.2455915l8.2124966 10.8138177h.3752587l8.3312836-10.8138177c.2618712-.3364298.5561388-.7569672.8855026-1.261612.2713201-.4258775.4076551-.6501641.4076551-.6728598l-.0688424 2.0345998V23.696946H210V0h-.3401626L198.963614 13.9084386 188.2673906 0h-.3401626v23.6969461z"/></g></svg>